<svg xmlns="http://www.w3.org/2000/svg" width="58.395" height="47.739" viewBox="0 0 58.395 47.739">
  <g id="bus-26746" transform="translate(-94.965 -53.26)">
    <path id="Path_1509" data-name="Path 1509" d="M152.359,63.454v2.827H151.11V68.32h-2.7V63.933h2.7v2.085h.987V63.453a1.565,1.565,0,0,0-.5-1.289,2.032,2.032,0,0,0-1.512-.274l-.028,0h-3.076a17.853,17.853,0,0,1,.226,2.327c.176,3.946,0,31.562,0,31.562s.088,1.491-.964,1.578c-.286.024-1.567.241-3.652.542-.464,1.094-.637,1.336-1.219,1.515-1.14.351-2.441-1.021-2.441-1.021l.3-.037a201.678,201.678,0,0,1-27.176,1.632c-.7,0-3.331-2.016-4.3-2.016a1.733,1.733,0,0,1-.186-.01c-.184.408-.642,1.145-1.48.887-1.113-.342-2.306-2.485-2.444-5.951l-3.539-3.539c-.169.822-.595,1.97-1.66,1.961-1.362-.011-1.754-1.88-1.85-6.04-.256-.07-.59-.42-.59-1.774V72.9a5.9,5.9,0,0,1,2.279-5c2.63-2.1,9.118-7.8,9.118-7.8a14.5,14.5,0,0,1,8.241-4.734c1.589-.328,3.643-.706,5.993-.981v.981l18.293,1.228V55.8c.707.237,1.409.5,2.1.792,3.226,1.382,4.424,2.765,4.9,5.038h3.112a2.252,2.252,0,0,1,1.718.329,1.806,1.806,0,0,1,.6,1.492Zm-39.08,8.921c.176,3.244,3.507,3.419,3.507,3.419s7.628.176,11.4,0,3.156-2.718,3.156-2.718-.05-4.559,0-8.241a3.066,3.066,0,0,0-2.718-3.072s-7.277.091-10.959,0-4.384,1.4-4.384,4.822a52.4,52.4,0,0,0,0,5.786Zm18.85-.176c.088,2.718,1.491,3.682,3.156,3.672s5.611.01,8.066,0,2.981-1.042,3.156-2.445a46.158,46.158,0,0,0,0-7.014c-.176-2.455-.877-3.682-3.069-3.77,0,0-5.085-.351-7.978-.526s-3.244.7-3.331,2.893c0,0-.088,4.472,0,7.189ZM118.8,80.791a1.666,1.666,0,1,0,1.666,1.666A1.666,1.666,0,0,0,118.8,80.791ZM143.965,80a1.713,1.713,0,1,0,1.315,1.666A1.522,1.522,0,0,0,143.965,80ZM123.186,95.608a1.318,1.318,0,1,0,1.228,1.315A1.274,1.274,0,0,0,123.186,95.608Zm17.886-1.315a1.329,1.329,0,1,0,1.14,1.315A1.237,1.237,0,0,0,141.072,94.293ZM116.626,62.135l.145-.219a13.207,13.207,0,0,0-5.922-2.077l-.042-.033-.082.037c-.119.054-.318.143-.061,4.914-.192-.014-.366-.017-.518-.016V62.43h-3.419v4.9h3.419V65a6.025,6.025,0,0,1,.645.028l.153.015-.009-.153a27.915,27.915,0,0,1-.079-4.791,13.217,13.217,0,0,1,5.77,2.032Zm29.25,25.783a1.749,1.749,0,0,0-1.963-1.565L118.75,87.2a1.9,1.9,0,0,0-1.963,1.7,1.749,1.749,0,0,0,1.963,1.565l25.163-.842A1.9,1.9,0,0,0,145.877,87.918Z" transform="translate(0 0)" fill="none" stroke="#000" stroke-width="2"/>
  </g>
</svg>
