<svg xmlns="http://www.w3.org/2000/svg" width="61.257" height="59.974" viewBox="0 0 61.257 59.974">
  <g id="car-direction-2665241" transform="translate(-78.997 -14.674)">
    <path id="Path_1595" data-name="Path 1595" d="M317.147,464.6H288.969a.709.709,0,1,0,0,1.417h28.178a.709.709,0,0,0,0-1.417Z" transform="translate(-185.612 -399.076)"/>
    <path id="Path_1596" data-name="Path 1596" d="M333.555,281.857a1.864,1.864,0,0,0,.148-1.771l-3.614-8.27a1.868,1.868,0,0,0-1.712-1.121H314.422a1.869,1.869,0,0,0-1.712,1.12l-3.614,8.271a1.868,1.868,0,0,0,1.712,2.616h21.184a1.861,1.861,0,0,0,1.563-.845Zm-23.125-.777a.44.44,0,0,1-.036-.426l3.614-8.272a.451.451,0,0,1,.413-.27h13.955a.451.451,0,0,1,.413.271l3.614,8.271a.45.45,0,0,1-.412.631H310.807a.444.444,0,0,1-.377-.2Z" transform="translate(-203.954 -227.085)"/>
    <path id="Path_1597" data-name="Path 1597" d="M260.369,251.017l-4.912-.373-3.976-9.1a3.243,3.243,0,0,0-2.973-1.946H231.875a3.247,3.247,0,0,0-2.973,1.945l-3.976,9.1-4.912.373a2.846,2.846,0,0,0,0,5.676l2.312.179a5.983,5.983,0,0,0-.152,1.324v9.688a1.785,1.785,0,0,0,1.782,1.782h.6v1.855a2.633,2.633,0,0,0,2.631,2.631h2.566a2.639,2.639,0,0,0,2.641-2.631v-1.855h15.593v1.855a2.638,2.638,0,0,0,2.641,2.631H253.2a2.633,2.633,0,0,0,2.631-2.631v-1.855h.6a1.785,1.785,0,0,0,1.782-1.782V258.2a5.982,5.982,0,0,0-.152-1.324l2.312-.179a2.846,2.846,0,0,0,0-5.676ZM218.8,253.85a1.416,1.416,0,0,1,1.321-1.42l4.162-.316-1.475,3.374-2.687-.208a1.439,1.439,0,0,1-1.322-1.43Zm10.954,18.887h-2.566a1.215,1.215,0,0,1-1.214-1.214v-1.855h5C230.857,270.347,231.516,272.737,229.754,272.737Zm24.655-1.214a1.215,1.215,0,0,1-1.214,1.214h-2.566a1.22,1.22,0,0,1-1.224-1.214v-1.855h5Zm2.018-3.272H223.955a.366.366,0,0,1-.365-.365v-7.1h3.242a2.88,2.88,0,1,0,0-1.417H223.59V258.2a4.549,4.549,0,0,1,.382-1.83l1.985-4.542s0,0,0-.005l4.242-9.707a1.826,1.826,0,0,1,1.674-1.1h16.634a1.826,1.826,0,0,1,1.674,1.1l4.243,9.711h0l1.985,4.542a4.546,4.546,0,0,1,.383,1.83v1.173h-3.242a2.879,2.879,0,1,0,0,1.417h3.242v7.1a.367.367,0,0,1-.366.366Zm-28.279-8.172a1.463,1.463,0,1,1,1.463,1.462A1.464,1.464,0,0,1,228.149,260.079Zm24.083,0a1.463,1.463,0,1,1-1.462-1.463A1.464,1.464,0,0,1,252.233,260.079Zm8.027-4.8-2.687.208-1.475-3.374,4.161.317a1.416,1.416,0,0,1,1.322,1.42,1.437,1.437,0,0,1-1.322,1.429Z" transform="translate(-122.746 -199.505)"/>
    <path id="Path_1598" data-name="Path 1598" d="M372.7,392.55a2.374,2.374,0,0,0-2.372,2.371v1.637a2.374,2.374,0,0,0,2.372,2.372H379a2.374,2.374,0,0,0,2.371-2.372v-1.637A2.374,2.374,0,0,0,379,392.55Zm-.954,4.008v-1.637a.956.956,0,0,1,.955-.954h.837v3.546H372.7a.955.955,0,0,1-.955-.954Zm3.209-2.591h1.792v3.546h-1.792Zm5,.954v1.637a.956.956,0,0,1-.954.955h-.838v-3.546H379a.955.955,0,0,1,.954.954Z" transform="translate(-258.403 -335.169)"/>
    <path id="Path_1599" data-name="Path 1599" d="M94.308,43.15v3.121a.709.709,0,0,0,.709.709H100.1a.709.709,0,0,0,.709-.709V43.649a9.864,9.864,0,0,1,9.149-9.822v1.156a.708.708,0,0,0,1.192.517l4.745-4.448a.707.707,0,0,0,0-1.033l-4.745-4.448a.708.708,0,0,0-1.192.517v1.225a16.264,16.264,0,0,0-9.149,3.273v-9.76h1.2a.708.708,0,0,0,.517-1.192l-4.448-4.745a.729.729,0,0,0-1.033,0L92.6,19.633a.708.708,0,0,0,.517,1.192h1.2v9.263a16.273,16.273,0,0,0-9.149-3.275V25.5a.708.708,0,0,0-1.192-.517l-4.745,4.448a.707.707,0,0,0,0,1.033l4.745,4.448a.709.709,0,0,0,1.193-.517V33.328a9.863,9.863,0,0,1,9.149,9.822Zm17.07-15.426,3,2.812-3,2.812ZM109.962,32.4a11.3,11.3,0,0,0-9.638,6.77,17.008,17.008,0,0,0-1.75-4.274,14.858,14.858,0,0,1,11.387-6.179ZM97.56,16.409l2.812,3H94.749ZM99.4,20.826V31.788a19.407,19.407,0,0,0-1.649,1.825,17.9,17.9,0,0,0-2.02-2.325V20.826ZM85.16,28.214a14.923,14.923,0,0,1,11.956,7.01h0A15.112,15.112,0,0,1,99.4,43.142v2.421h-3.67V43.151A11.289,11.289,0,0,0,85.16,31.9Zm-1.418,4.545-3-2.812,3-2.812Z"/>
  </g>
</svg>
