<svg xmlns="http://www.w3.org/2000/svg" width="20.359" height="20.359" viewBox="0 0 20.359 20.359">
  <path id="Icon_awesome-fax" data-name="Icon awesome-fax" d="M2.545,5.09H1.272A1.273,1.273,0,0,0,0,6.362V19.087a1.273,1.273,0,0,0,1.272,1.272H2.545a1.273,1.273,0,0,0,1.272-1.272V6.362A1.273,1.273,0,0,0,2.545,5.09ZM19.087,6.362V3.072a1.273,1.273,0,0,0-.373-.9l-1.8-1.8a1.273,1.273,0,0,0-.9-.373H6.362A1.273,1.273,0,0,0,5.09,1.272V19.087a1.273,1.273,0,0,0,1.272,1.272H19.087a1.273,1.273,0,0,0,1.272-1.272V7.635A1.273,1.273,0,0,0,19.087,6.362ZM11.452,17.178a.636.636,0,0,1-.636.636H9.543a.636.636,0,0,1-.636-.636V15.906a.636.636,0,0,1,.636-.636h1.272a.636.636,0,0,1,.636.636Zm0-5.09a.636.636,0,0,1-.636.636H9.543a.636.636,0,0,1-.636-.636V10.816a.636.636,0,0,1,.636-.636h1.272a.636.636,0,0,1,.636.636Zm5.09,5.09a.636.636,0,0,1-.636.636H14.633A.636.636,0,0,1,14,17.178V15.906a.636.636,0,0,1,.636-.636h1.272a.636.636,0,0,1,.636.636Zm0-5.09a.636.636,0,0,1-.636.636H14.633A.636.636,0,0,1,14,12.088V10.816a.636.636,0,0,1,.636-.636h1.272a.636.636,0,0,1,.636.636Zm.636-4.454H7V1.909H15.27V3.181a.636.636,0,0,0,.636.636h1.272Z" fill="#fff"/>
</svg>
