<svg xmlns="http://www.w3.org/2000/svg" width="20.576" height="22.014" viewBox="0 0 20.576 22.014">
  <g id="location-4693851" transform="translate(-4.193 -2.25)">
    <path id="Path_61" data-name="Path 61" d="M30.143,15.744a2.67,2.67,0,1,0-2.67,2.67A2.67,2.67,0,0,0,30.143,15.744Z" transform="translate(-12.985 -6.819)" fill="#fff"/>
    <path id="Path_62" data-name="Path 62" d="M20,20.088a.957.957,0,0,0,1.311,0c1.611-1.492,5.415-5.463,5.955-10.093a7.124,7.124,0,0,0-1.622-5.417,6.467,6.467,0,0,0-4.658-2.319A6.674,6.674,0,0,0,13.98,8.924C13.98,14.109,18.587,18.78,20,20.088ZM17.43,8.924a3.225,3.225,0,1,1,3.225,3.225A3.225,3.225,0,0,1,17.43,8.924Z" transform="translate(-6.166)" fill="#fff"/>
    <path id="Path_63" data-name="Path 63" d="M19.952,49.47a1.516,1.516,0,0,1-1.032-.405c-.338-.313-.855-.816-1.447-1.468-3.01.269-4.607.978-4.607,1.434,0,.629,2.758,1.544,7.079,1.544s7.079-.914,7.079-1.544c0-.439-1.464-1.156-4.586-1.434-.558.61-1.068,1.11-1.453,1.466A1.516,1.516,0,0,1,19.952,49.47Z" transform="translate(-5.464 -28.569)" fill="#fff"/>
    <path id="Path_64" data-name="Path 64" d="M18.656,42.054c-.41.561-.826,1.076-1.228,1.539,2.377.258,4.688.874,4.688,1.943,0,1.378-3.84,2.1-7.634,2.1s-7.634-.721-7.634-2.1c0-1.073,2.323-1.689,4.709-1.946-.4-.46-.813-.976-1.225-1.541-3.762.591-6.137,1.915-6.137,3.487,0,2.132,4.519,3.8,10.288,3.8s10.288-1.67,10.288-3.8C24.769,43.969,22.4,42.646,18.656,42.054Z" transform="translate(0 -25.075)" fill="#fff"/>
  </g>
</svg>
