<svg xmlns="http://www.w3.org/2000/svg" width="57.239" height="40.905" viewBox="0 0 57.239 40.905">
  <g id="metro-3893641" transform="translate(-153.832 -139.785)">
    <path id="Path_1550" data-name="Path 1550" d="M179.6,170.111h18.366a1.844,1.844,0,0,0,1.127-.311,1.424,1.424,0,0,0,.5-1.381c-.188-1.691-.441-3.448-.686-5.139a1.924,1.924,0,0,0-2.067-1.691c-4.894,0-9.779.066-14.731,0a2.43,2.43,0,0,0-2.32,1.756c-.564,1.691-1.127,3.448-1.691,5.139a1.26,1.26,0,0,0,.253,1.315,1.732,1.732,0,0,0,1.251.311Z" transform="translate(-20.663 -18.611)"/>
    <path id="Path_1551" data-name="Path 1551" d="M373.422,225.2c0-.768,0-1.47-.074-2.239a21.463,21.463,0,0,0-.074-2.173c-1.258-1.47-2.59-3.015-3.783-4.624v2.59c.074,3.08.139,6.168.213,9.314a17.347,17.347,0,0,0,3.857,2.525c0-.842-.074-1.748-.074-2.59C373.422,227.089,373.5,226.108,373.422,225.2Z" transform="translate(-184.197 -65.238)"/>
    <path id="Path_1552" data-name="Path 1552" d="M408.472,261.057c0-.842,0-1.748-.074-2.59a22.834,22.834,0,0,1-3.857-2.941c.139,1.748.139,3.431.139,5.041.074.842,0,1.748.074,2.59v1.47c0,.139.139.139.213.139a31.857,31.857,0,0,0,3.644,1.119c-.074-.768,0-1.47-.074-2.239C408.472,262.806,408.546,261.964,408.472,261.057Z" transform="translate(-214.134 -98.855)"/>
    <path id="Path_1553" data-name="Path 1553" d="M183.144,273.743a2.911,2.911,0,0,0-2.255-.441,2.619,2.619,0,0,0-2.01,2.2,2.672,2.672,0,0,0,1.381,2.631,2.741,2.741,0,0,0,2.32.066,2.851,2.851,0,0,0,1.446-1.634,2.739,2.739,0,0,0-.882-2.819Z" transform="translate(-21.378 -113.976)"/>
    <path id="Path_1554" data-name="Path 1554" d="M300.014,273.865a2.578,2.578,0,0,0-4.076,1.258,2.607,2.607,0,0,0,.311,2.255,2.678,2.678,0,0,0,3.007,1,2.6,2.6,0,0,0,.759-4.518Z" transform="translate(-121.265 -114.032)"/>
    <path id="Path_1555" data-name="Path 1555" d="M444.466,283.224c-.662-.278-1.315-.58-1.952-.882s-1.266-.621-1.9-.94c.032,1.152.049,2.329.073,3.5s.033,2.344.074,3.5c1.258.278,2.525.564,3.857.768v-1.054c-.074-.842,0-1.683-.074-2.525-.009-.76-.009-1.536-.074-2.378Z" transform="translate(-244.94 -120.956)"/>
    <path id="Path_1556" data-name="Path 1556" d="M475.66,297.75c0,1.9.074,3.783.074,5.6,1.054.213,2.1.351,3.219.49,0-1.609-.074-3.292-.074-4.9-1.119-.351-2.165-.768-3.219-1.192Z" transform="translate(-274.876 -134.919)"/>
    <path id="Path_1557" data-name="Path 1557" d="M506.41,309.29c0,1.4.074,2.729.074,4.134a1.14,1.14,0,0,0,.074.49c.842.139,1.683.213,2.525.278,0-1.332-.074-2.729-.074-4.06-.85-.286-1.691-.564-2.6-.841Z" transform="translate(-301.14 -144.776)"/>
    <path id="Path_1558" data-name="Path 1558" d="M180.612,383.157h-9.657v-1.691h-6.83a13.156,13.156,0,0,1-.066,1.634h-4.011v4.011H185.13c10.155-1.062,20.375-2.255,30.531-3.382.123,0,.253,0,.253-.123v-2.133H180.619c-.008.556-.008,1.12-.008,1.683Z" transform="translate(-5.309 -206.422)"/>
    <path id="Path_1559" data-name="Path 1559" d="M210.22,163.836a3.8,3.8,0,0,0-1.332-.556c-.164-.041-.319-.081-.482-.139a87.5,87.5,0,0,1-8.783-3.3c-.572-.286-1.16-.556-1.74-.825s-1.144-.531-1.707-.809a14.406,14.406,0,0,1-2.982-2.075,28.729,28.729,0,0,1-3.031-3.154,57.893,57.893,0,0,1-6.4-10.269,4.741,4.741,0,0,0-1.291-1.756,4.434,4.434,0,0,0-3.088-1.16l-16.617.017a7.033,7.033,0,0,0-3.113.6,7.948,7.948,0,0,0-3.439,3.17,16.189,16.189,0,0,0-1.805,4.706,30.913,30.913,0,0,0-.572,6.478v9.779c0,.686,0,1.332.066,2.075a7.643,7.643,0,0,0,2.182,4.3,9.423,9.423,0,0,0,3.734,2.231l.066.024h49.215a1.721,1.721,0,0,0,1.266-.409,2.108,2.108,0,0,0,.711-1.634v-5.89a1.73,1.73,0,0,0-.85-1.405Zm.032,7.279a1.337,1.337,0,0,1-.441,1.029,1.01,1.01,0,0,1-.719.2H160.007a8.577,8.577,0,0,1-3.358-2.018,6.848,6.848,0,0,1-1.944-3.815,19.519,19.519,0,0,1-.066-1.969V154.76a30.166,30.166,0,0,1,.556-6.3A15.4,15.4,0,0,1,156.9,144a7.154,7.154,0,0,1,3.08-2.851,6.386,6.386,0,0,1,2.778-.523H179.4a3.671,3.671,0,0,1,2.549.98,4.093,4.093,0,0,1,1.078,1.495,59.242,59.242,0,0,0,6.5,10.416,29.629,29.629,0,0,0,3.121,3.243,15.48,15.48,0,0,0,3.154,2.19c.564.286,1.152.548,1.732.817s1.16.531,1.741.825a86.932,86.932,0,0,0,8.873,3.333c.172.057.351.106.531.147a2.909,2.909,0,0,1,1.062.425.973.973,0,0,1,.507.727v5.891Z"/>
  </g>
</svg>
